<svg width="159" height="68" viewBox="0 0 159 68" fill="none" xmlns="http://www.w3.org/2000/svg">
<path d="M0.010498 0.000976562H67.4689V67.4453H0.010498V0.000976562Z" fill="#D71921"/>
<path d="M33.7397 18.4117C21.0026 18.4117 11.2536 24.9785 11.2536 33.7225C11.2536 42.1785 20.754 49.0333 33.7397 49.0333C46.7255 49.0333 56.2259 42.1785 56.2259 33.7225C56.2259 24.9785 46.4769 18.4117 33.7397 18.4117ZM47.7604 24.9785C48.2289 26.866 46.0301 29.2249 38.9544 29.9963C38.4832 25.1892 37.0578 21.1282 34.6937 20.2681C37.8752 20.3577 40.8915 20.8957 43.5209 21.8495C45.98 22.7772 47.5078 23.9605 47.7604 24.9785ZM37.28 33.6486C37.28 39.7393 35.4503 42.2638 33.7397 42.2638C32.0292 42.2638 30.1995 39.7393 30.1995 33.6486L30.1998 33.585C31.3365 33.6813 32.52 33.7315 33.7397 33.7315C34.9594 33.7315 36.1429 33.6813 37.2796 33.585L37.28 33.6486ZM33.7387 30.2536C32.5455 30.2536 31.4419 30.2195 30.4217 30.1566C30.9591 26.1738 32.3865 23.8584 33.7397 23.8584C35.0929 23.8584 36.5204 26.1738 37.0578 30.1566C36.0369 30.2198 34.9326 30.2536 33.7387 30.2536ZM19.7167 24.9785C19.968 23.9658 21.4814 22.7892 23.9184 21.8635C26.5569 20.9007 29.5878 20.3581 32.7854 20.2681C30.4217 21.1282 28.9962 25.1892 28.5247 29.9967C21.4476 29.2255 19.2482 26.8663 19.7167 24.9785ZM14.5696 33.1708C14.5696 30.5922 15.4332 28.3641 16.936 26.5191C17.1308 29.9378 21.7558 32.4874 28.3514 33.3823L28.3504 33.6482C28.3504 41.8968 30.4655 46.2693 32.8102 47.1726C22.7416 46.8113 14.5696 40.6111 14.5696 33.1708ZM34.6281 47.1739C36.9888 46.2315 39.129 41.5398 39.129 33.6482L39.128 33.3823C45.7233 32.4874 50.3487 29.9378 50.5434 26.5191C52.0462 28.3641 52.9098 30.5922 52.9098 33.1708C52.9095 40.6212 44.7151 46.8276 34.6281 47.1739Z" fill="white"/>
<path d="M95.3109 18.4656H84.3336L87.6111 0H91.1229L88.3914 15.3185H95.857L95.3109 18.4656ZM97.3658 12.5618C97.3658 8.11473 100.201 5.04561 104.597 5.04561C108.239 5.04561 110.398 7.38643 110.398 11.0012C110.398 11.4174 110.372 11.9115 110.294 12.5876H100.565C100.695 15.0064 102.308 15.9946 104.363 15.9946C106.106 15.9946 107.537 15.3965 108.837 14.5902L109.279 17.2431C107.953 18.0755 106.184 18.7255 103.895 18.7255C99.8631 18.7258 97.3658 16.3071 97.3658 12.5618ZM100.852 10.3512H107.225C107.121 8.79085 106.21 7.56842 104.467 7.56842C102.62 7.56842 101.372 8.66105 100.852 10.3512ZM118.436 1.19667L115.106 1.61251L114.456 5.30589H112.583L112.089 8.03678H113.962L112.973 13.8626C112.895 14.3567 112.843 14.7986 112.843 15.2409C112.843 17.6854 114.326 18.7258 116.381 18.7258C117.968 18.7258 119.268 18.2836 120.205 17.7637L119.814 15.1104C119.19 15.4486 118.306 15.7865 117.474 15.7865C116.641 15.7865 116.121 15.3704 116.121 14.5641C116.121 14.2781 116.173 13.992 116.199 13.8097L117.213 8.03612H120.907L121.401 5.30522H117.707L118.436 1.19667ZM129.388 0.000331809H125.98L123.483 5.72206H126.266L129.388 0.000331809ZM127.046 9.23278C127.046 11.1835 128.373 11.9637 130.61 12.9519C132.015 13.5762 133.003 13.9402 133.003 14.8766C133.003 15.735 132.222 16.281 130.896 16.281C129.413 16.281 127.748 15.6571 126.656 14.8766L125.641 17.3733C126.708 18.1277 128.529 18.7255 130.61 18.7255C134.017 18.7255 136.281 17.1394 136.281 14.3045C136.281 12.224 135.006 11.5217 132.977 10.6372C130.948 9.753 130.323 9.38868 130.323 8.66071C130.323 7.77651 131.208 7.46404 132.275 7.46404C133.679 7.46404 134.98 7.98426 135.968 8.55633L136.905 6.08571C135.968 5.53974 134.303 5.01952 132.483 5.01952C129.257 5.01952 127.046 6.60627 127.046 9.23278ZM92.2934 43.1905C95.0767 43.1905 96.8455 42.2022 98.0682 40.8758L97.6777 42.9821H100.878L102.595 33.3334H94.0625L93.5418 36.1423H98.8227C98.1465 38.0669 96.2475 40.0177 93.152 40.0177C90.1084 40.0177 88.0013 38.0151 88.0013 34.5294C88.0013 30.4985 90.8626 27.5334 94.9462 27.5334C97.2096 27.5334 98.8485 28.3658 100.227 29.3801L101.762 26.3374C100.175 25.219 97.9638 24.2308 95.0242 24.2308C88.5992 24.2308 84.3071 28.704 84.3071 34.8419C84.3075 40.0434 87.6891 43.1905 92.2934 43.1905ZM110.71 43.2162C106.886 43.2162 104.155 40.7456 104.155 36.8445C104.155 33.0213 107.016 29.5363 111.985 29.5363C115.939 29.5363 118.54 32.0852 118.54 35.7525C118.54 39.6794 115.626 43.2162 110.71 43.2162ZM111.049 40.2515C113.676 40.2515 115.185 38.3011 115.185 35.986C115.185 33.8537 113.78 32.5014 111.621 32.5014C108.942 32.5014 107.511 34.5559 107.511 36.6367C107.511 38.8471 108.889 40.2515 111.049 40.2515ZM99.3688 54.3911C99.3688 58.0841 96.8197 60.9709 91.8249 60.9709H88.9894L87.845 67.447H84.3336L87.585 48.9815H93.0998C97.3919 48.9815 99.3688 51.1664 99.3688 54.3911ZM95.7011 54.5731C95.7011 52.6749 94.5567 51.8683 92.2415 51.8683H90.5768L89.4846 58.0841H91.7995C94.2442 58.0841 95.7011 56.7319 95.7011 54.5731ZM105.794 47.8892H102.568L99.8366 63.4158C99.7587 63.8055 99.7068 64.222 99.7068 64.5857C99.7068 66.6923 101.034 67.707 103.088 67.707C103.973 67.707 104.779 67.525 105.352 67.3166L105.248 64.6375C104.961 64.7416 104.52 64.872 104.077 64.872C103.427 64.872 103.037 64.6118 103.037 63.8577C103.037 63.65 103.063 63.3636 103.115 63.1555L105.794 47.8892ZM119.789 58.5264C119.789 59.2025 119.659 59.9569 119.555 60.6588L118.332 67.4467H115.08L115.366 65.8084C114.404 66.8485 112.973 67.7331 111.022 67.7331C108.837 67.7331 107.094 66.5364 107.094 64.1176C107.094 60.4504 110.866 59.5401 116.485 59.4882C116.511 59.2025 116.537 58.9422 116.537 58.786C116.537 57.4856 115.704 56.7058 113.936 56.7058C112.245 56.7058 110.788 57.3558 109.644 58.0323L109.019 55.4834C110.242 54.7815 112.193 54.0271 114.456 54.0271C117.604 54.0271 119.789 55.5095 119.789 58.5264ZM116.173 61.4389C112.323 61.465 110.502 62.0632 110.502 63.7021C110.502 64.846 111.309 65.2882 112.401 65.2882C113.962 65.2882 115.705 64.4301 116.043 62.193C116.095 61.9595 116.121 61.6995 116.173 61.4389ZM129.127 56.94C130.35 56.94 131.364 57.3561 132.197 57.9801L133.367 55.2495C132.353 54.5727 130.896 54.0267 129.101 54.0267C124.392 54.0267 121.427 57.2257 121.427 61.4911C121.427 65.2882 123.924 67.707 127.878 67.707C129.725 67.707 131.39 67.1349 132.431 66.4585L131.884 63.7276C130.948 64.2996 129.803 64.7938 128.451 64.7938C126.161 64.7938 124.835 63.4415 124.835 61.2309C124.835 58.7602 126.5 56.94 129.127 56.94ZM147.102 59.9827C147.102 60.3988 147.076 60.893 146.998 61.5691H137.269C137.399 63.9878 139.012 64.9761 141.067 64.9761C142.81 64.9761 144.241 64.3779 145.541 63.5717L145.983 66.2239C144.656 67.0563 142.888 67.7066 140.599 67.7066C136.567 67.7066 134.069 65.2879 134.069 61.5426C134.069 57.0955 136.905 54.0264 141.301 54.0264C144.943 54.0271 147.102 56.3676 147.102 59.9827ZM143.928 59.3326C143.824 57.7723 142.913 56.5499 141.17 56.5499C139.324 56.5499 138.075 57.6422 137.555 59.3326H143.928ZM155.062 59.6183C153.032 58.7341 152.408 58.3702 152.408 57.6422C152.408 56.7576 153.292 56.4455 154.359 56.4455C155.764 56.4455 157.065 56.9657 158.053 57.5378L158.99 55.0672C158.053 54.5212 156.388 54.0007 154.567 54.0007C151.342 54.0007 149.131 55.5871 149.131 58.2139C149.131 60.1647 150.458 60.9451 152.695 61.9334C154.1 62.5573 155.088 62.9213 155.088 63.8577C155.088 64.7161 154.307 65.2625 152.981 65.2625C151.498 65.2625 149.833 64.6382 148.741 63.8577L147.726 66.3544C148.793 67.1088 150.614 67.707 152.695 67.707C156.102 67.707 158.366 66.1206 158.366 63.2856C158.365 61.2048 157.09 60.5029 155.062 59.6183Z" fill="black"/>
</svg>
