<svg width="199" height="55" viewBox="0 0 199 55" fill="none" xmlns="http://www.w3.org/2000/svg">
<path d="M0.534424 0H54.9664V54.6153H0.534424V0Z" fill="#D71921"/>
<path d="M183.382 29.0109L186.435 20.9762L189.485 29.0109H183.382ZM189.605 16.4136H183.263L174.401 38.1998H179.895L181.913 32.8832H190.954L192.974 38.1998H198.465L189.605 16.4136ZM144.875 34.412C141.296 34.412 138.4 31.1727 138.4 27.1749C138.4 23.1768 141.296 19.9351 144.875 19.9351C148.448 19.9351 151.349 23.1768 151.349 27.1749C151.348 31.1724 148.448 34.412 144.875 34.412ZM144.875 15.6667C138.54 15.6667 133.404 20.8194 133.404 27.1746C133.404 33.5299 138.54 38.6799 144.875 38.6799C151.206 38.6799 156.345 33.5296 156.345 27.1746C156.345 20.8194 151.206 15.6667 144.875 15.6667ZM99.6169 34.412C96.044 34.412 93.1458 31.1727 93.1458 27.1749C93.1458 23.1768 96.0443 19.9351 99.6169 19.9351C103.194 19.9351 106.093 23.1768 106.093 27.1749C106.093 31.1724 103.194 34.412 99.6169 34.412ZM99.6169 15.6667C93.2832 15.6667 88.1522 20.8194 88.1522 27.1746C88.1522 33.5299 93.2832 38.6799 99.6169 38.6799C105.951 38.6799 111.086 33.5296 111.086 27.1746C111.086 20.8194 105.951 15.6667 99.6169 15.6667ZM127.966 16.4136L122.346 25.2282L116.722 16.4136H111.226L119.925 30.0758V38.1998H124.763V30.078L133.462 16.4139H127.966V16.4136ZM175.557 16.4136H156.994V20.5913H163.869V38.1998H168.712V20.5913H175.557V16.4136H175.557ZM68.5745 20.5913H75.4522V38.1998H80.2925V20.5913H87.1405V16.4136H68.5745V20.5913Z" fill="black"/>
<path d="M27.7504 14.9092C17.4729 14.9092 9.60645 20.2269 9.60645 27.3076C9.60645 34.1551 17.2723 39.7061 27.7504 39.7061C38.2286 39.7061 45.8944 34.1551 45.8944 27.3076C45.8944 20.2269 38.028 14.9092 27.7504 14.9092ZM39.0637 20.2269C39.4417 21.7554 37.6675 23.6655 31.9581 24.2903C31.578 20.3976 30.4278 17.109 28.5202 16.4125C31.0874 16.4851 33.5212 16.9207 35.6428 17.6931C37.627 18.4446 38.8599 19.4028 39.0637 20.2269ZM30.607 27.2478C30.607 32.1799 29.1307 34.2242 27.7504 34.2242C26.3702 34.2242 24.8938 32.1799 24.8938 27.2478L24.8941 27.1963C25.8113 27.2743 26.7663 27.315 27.7504 27.315C28.7346 27.315 29.6896 27.2743 30.6068 27.1963L30.607 27.2478ZM27.7496 24.4988C26.7868 24.4988 25.8964 24.4712 25.0731 24.4203C25.5067 21.1951 26.6586 19.3202 27.7504 19.3202C28.8423 19.3202 29.9941 21.1951 30.4278 24.4203C29.6043 24.4712 28.7133 24.4988 27.7496 24.4988ZM16.4356 20.2269C16.6383 19.4068 17.8595 18.4541 19.8259 17.7045C21.9549 16.9248 24.4006 16.4854 26.9807 16.4125C25.0734 17.109 23.9232 20.3976 23.5428 24.2905C17.832 23.6661 16.0573 21.7556 16.4356 20.2269ZM12.2824 26.8609C12.2824 24.7727 12.9793 22.9685 14.1919 21.4744C14.349 24.2428 18.0809 26.3074 23.4029 27.0321L23.4021 27.2475C23.4021 33.927 25.1088 37.4678 27.0007 38.1993C18.8764 37.9067 12.2824 32.8859 12.2824 26.8609ZM28.4673 38.2006C30.3721 37.4375 32.0991 33.6382 32.0991 27.2478L32.0983 27.0324C37.42 26.3077 41.1522 24.2431 41.3093 21.4747C42.5219 22.9688 43.2187 24.773 43.2187 26.8612C43.2187 32.8941 36.6067 37.92 28.4673 38.2006Z" fill="white"/>
</svg>
